<svg width="18" height="18" viewBox="0 0 18 18" fill="none" xmlns="http://www.w3.org/2000/svg">
<g id="activity-rec" clip-path="url(#clip0_15047_2814)">
<path id="Vector" d="M4.5 9L6 9L7.5 11.25L10.5 6.75L12 9L13.5 9M8.7 16.5L9.3 16.5C11.8202 16.5 13.0804 16.5 14.043 16.0095C14.8897 15.5781 15.5781 14.8897 16.0095 14.043C16.5 13.0804 16.5 11.8202 16.5 9.3L16.5 8.7C16.5 6.17976 16.5 4.91964 16.0095 3.95704C15.5781 3.11031 14.8897 2.4219 14.043 1.99047C13.0804 1.5 11.8202 1.5 9.3 1.5L8.7 1.5C6.17976 1.5 4.91965 1.5 3.95704 1.99047C3.11031 2.4219 2.4219 3.11031 1.99047 3.95704C1.5 4.91965 1.5 6.17976 1.5 8.7L1.5 9.3C1.5 11.8202 1.5 13.0804 1.99047 14.043C2.4219 14.8897 3.11032 15.5781 3.95705 16.0095C4.91965 16.5 6.17977 16.5 8.7 16.5Z" stroke="#F93F3F" stroke-width="1.25" stroke-linecap="round" stroke-linejoin="round"/>
</g>
<defs>
<clipPath id="clip0_15047_2814">
<rect width="18" height="18" fill="white"/>
</clipPath>
</defs>
</svg>
