<svg width="70" height="71" viewBox="0 0 70 71" fill="none" xmlns="http://www.w3.org/2000/svg">
<path fill-rule="evenodd" clip-rule="evenodd" d="M19.3746 4.17292C24.0779 1.82246 29.3845 0.5 35 0.5C54.33 0.5 70 16.17 70 35.5C70 41.988 68.2346 48.0637 65.1581 53.2729C61.6692 53.3969 58.2099 52.9044 55.0424 51.8281C53.2858 51.2538 51.5833 50.4898 50.0219 49.5362C50.9403 48.342 51.7409 47.0632 52.389 45.7209C54.8318 40.793 55.4215 35.149 54.4106 29.8842C53.9052 27.2728 53.0207 24.7036 51.8835 22.3449C50.7463 19.9441 49.3143 17.754 47.7559 15.648C47.5032 15.3111 47.2083 15.0162 46.8293 14.8056C45.2709 13.879 43.2913 14.3845 42.3647 15.9007L42.1962 16.1534C40.006 20.7444 38.1949 25.5881 37.6474 30.8529C37.3947 33.4643 37.4789 36.1599 38.0686 38.7712C38.6582 41.3826 39.8375 43.9097 41.4802 45.9736C42.0469 46.7001 42.6687 47.3715 43.3318 47.9894C41.8675 49.2463 40.1834 50.2324 38.3634 50.8594C36.468 51.5333 34.4884 51.8281 32.4667 51.786C30.445 51.7438 28.3812 51.3648 26.5701 50.6909C24.7169 50.017 23.0743 48.964 21.6001 47.7004C20.1681 46.3948 18.9045 44.8364 17.8936 43.1095C16.8828 41.3826 16.0404 39.4873 15.4507 37.5077C14.8611 35.486 14.4399 33.4222 14.2293 31.3162C14.1054 30.2835 14.0625 29.2103 14.0211 28.1761L14.0187 28.1152C13.9766 27.0622 14.0187 25.9671 14.0608 24.9142C14.1872 22.7661 14.3978 20.618 14.819 18.5121C15.6192 14.2581 16.967 10.0883 18.7781 6.21341C18.9466 5.79222 19.1151 5.32891 19.2414 4.8656C19.2979 4.63464 19.3422 4.40353 19.3746 4.17292ZM3.16332 20.939C3.18641 22.3377 3.25074 23.7372 3.36264 25.1248C3.489 26.4304 3.61536 27.7361 3.82595 29.0418C4.03654 30.3475 4.24715 31.6532 4.54198 32.9589C5.13165 35.5281 5.93189 38.0974 6.98486 40.5824C8.03783 43.0674 9.3014 45.5103 10.944 47.7426C12.5445 50.017 14.5241 52.0387 16.7986 53.7234C19.073 55.4082 21.6422 56.6718 24.3378 57.472C25.6856 57.8932 27.0755 58.1459 28.4233 58.3144C29.8133 58.4829 31.1611 58.525 32.551 58.4829C35.3308 58.3986 38.0685 57.809 40.6378 56.756C41.9014 56.2084 43.1228 55.5767 44.3021 54.8185C45.4393 54.1025 46.5344 53.218 47.5453 52.2914C47.8378 52.0113 48.1238 51.7239 48.4028 51.4296C50.3626 52.3821 52.4342 53.0357 54.537 53.4707C56.9799 53.9761 59.4228 54.1446 61.8657 54.0604C62.8709 54.0084 63.869 53.9136 64.857 53.7731C58.7031 63.8068 47.6332 70.5 35 70.5C15.67 70.5 0 54.83 0 35.5C0 30.3042 1.13219 25.3727 3.16332 20.939ZM45.5268 45.6944C46.1676 44.8777 46.7324 43.9976 47.2083 43.0674C48.1349 41.2563 48.7246 39.2767 48.9773 37.2129C49.23 35.149 49.0616 33.0852 48.6404 31.0214C48.2192 28.9576 47.4189 26.978 46.4081 25.1248C46.1613 24.6904 45.903 24.2608 45.6331 23.8373C44.3624 26.3521 43.3481 28.957 42.7437 31.611C42.2804 33.7591 42.0698 35.9072 42.3225 38.0131C42.5331 40.1191 43.207 42.1829 44.3443 44.0361C44.6988 44.6138 45.0942 45.167 45.5268 45.6944Z" fill="#295C51"/>
</svg>
