<svg width="18" height="18" viewBox="0 0 18 18" fill="none" xmlns="http://www.w3.org/2000/svg">
<g id="arrow-top-right">
<path id="Vector" opacity="0.7" d="M6.4353 3.82028C6.09013 3.819 5.80927 4.09778 5.80799 4.44296C5.80671 4.78813 6.08549 5.06899 6.43066 5.07027L6.4353 3.82028ZM13.5258 4.47159L14.1508 4.46918C14.1494 4.12585 13.8714 3.84787 13.5281 3.8466L13.5258 4.47159ZM12.9282 11.5679C12.9295 11.913 13.2104 12.1918 13.5556 12.1904C13.9007 12.1891 14.1795 11.9082 14.1782 11.563L12.9282 11.5679ZM3.99946 13.114C3.75539 13.3581 3.75539 13.7538 3.99946 13.9979C4.24354 14.242 4.63927 14.242 4.88335 13.9979L3.99946 13.114ZM6.43066 5.07027L13.5234 5.09659L13.5281 3.8466L6.4353 3.82028L6.43066 5.07027ZM12.9008 4.47401L12.9282 11.5679L14.1782 11.563L14.1508 4.46918L12.9008 4.47401ZM13.0838 4.02965L3.99946 13.114L4.88335 13.9979L13.9677 4.91353L13.0838 4.02965Z" fill="#1570EF"/>
</g>
</svg>
