<svg width="12" height="12" viewBox="0 0 12 12" fill="none" xmlns="http://www.w3.org/2000/svg">
<g id="file-text">
<path id="Vector" d="M5.50012 0.999973H4C2.89543 0.999973 2 1.8954 2 2.99997V8.99997C2 10.1045 2.89543 11 4 11H8.00023C9.1048 11 10.0002 10.1045 10.0002 8.99998V5.18418M5.50012 0.999973C5.77626 0.999973 6.00012 1.22383 6.00012 1.49997V2.68418C6.00012 3.78875 6.89555 4.68418 8.00012 4.68418H9.50023C9.77637 4.68418 10.0002 4.90804 10.0002 5.18418M5.50012 0.999973H5.80848C5.93187 0.999973 6.05091 1.0456 6.14269 1.12808L9.83446 4.44572C9.93998 4.54055 10.0002 4.67574 10.0002 4.81761L10.0002 5.18418M4.08854 6.62641H7.60293M4.08854 8.62641H5.88288" stroke="#585858" stroke-miterlimit="10" stroke-linecap="round"/>
</g>
</svg>
