<svg width="18" height="18" viewBox="0 0 18 18" fill="none" xmlns="http://www.w3.org/2000/svg">
<g id="bell">
<path id="Vector" opacity="0.7" d="M6 14.6591C6.49395 15.7705 7.7838 16.5 9 16.5C10.2162 16.5 11.5061 15.7705 12 14.6591M13.5 8.39268V6C13.5 3.51472 11.4853 1.5 9 1.5V1.5C6.51472 1.5 4.5 3.51472 4.5 6V8.39268C4.5 9.01796 4.23461 9.61385 3.76985 10.0321L2.93891 10.78C1.94703 11.6727 2.26348 13.3004 3.51757 13.7564L3.67582 13.8139C7.11511 15.0646 10.8849 15.0646 14.3242 13.8139L14.4824 13.7564C15.7365 13.3004 16.053 11.6727 15.0611 10.78L14.2301 10.0321C13.7654 9.61385 13.5 9.01796 13.5 8.39268Z" stroke="#585858" stroke-width="1.3" stroke-linecap="round" stroke-linejoin="round"/>
</g>
</svg>
