<svg width="14" height="14" viewBox="0 0 14 14" fill="none" xmlns="http://www.w3.org/2000/svg">
<g id="calendar-dates" opacity="0.7" clip-path="url(#clip0_17523_14312)">
<path id="Vector" d="M4.66602 0.583313V2.33331M9.33268 0.583313V2.33331M10.2077 4.66665H3.79102M4.66602 7.29165C4.66602 7.45273 4.53543 7.58331 4.37435 7.58331C4.21327 7.58331 4.08268 7.45273 4.08268 7.29165M4.66602 7.29165C4.66602 7.13056 4.53543 6.99998 4.37435 6.99998C4.21327 6.99998 4.08268 7.13056 4.08268 7.29165M4.66602 7.29165H4.08268M4.66602 9.62498C4.66602 9.78606 4.53543 9.91665 4.37435 9.91665C4.21327 9.91665 4.08268 9.78606 4.08268 9.62498M4.66602 9.62498C4.66602 9.4639 4.53543 9.33331 4.37435 9.33331C4.21327 9.33331 4.08268 9.4639 4.08268 9.62498M4.66602 9.62498H4.08268M7.29102 7.29165C7.29102 7.45273 7.16043 7.58331 6.99935 7.58331C6.83827 7.58331 6.70768 7.45273 6.70768 7.29165M7.29102 7.29165C7.29102 7.13056 7.16043 6.99998 6.99935 6.99998C6.83827 6.99998 6.70768 7.13056 6.70768 7.29165M7.29102 7.29165H6.70768M7.29102 9.62498C7.29102 9.78606 7.16043 9.91665 6.99935 9.91665C6.83827 9.91665 6.70768 9.78606 6.70768 9.62498M7.29102 9.62498C7.29102 9.4639 7.16043 9.33331 6.99935 9.33331C6.83827 9.33331 6.70768 9.4639 6.70768 9.62498M7.29102 9.62498H6.70768M9.91602 7.29165C9.91602 7.45273 9.78543 7.58331 9.62435 7.58331C9.46327 7.58331 9.33268 7.45273 9.33268 7.29165M9.91602 7.29165C9.91602 7.13056 9.78543 6.99998 9.62435 6.99998C9.46327 6.99998 9.33268 7.13056 9.33268 7.29165M9.91602 7.29165H9.33268M9.91602 9.62498C9.91602 9.78606 9.78543 9.91665 9.62435 9.91665C9.46327 9.91665 9.33268 9.78606 9.33268 9.62498M9.91602 9.62498C9.91602 9.4639 9.78543 9.33331 9.62435 9.33331C9.46327 9.33331 9.33268 9.4639 9.33268 9.62498M9.91602 9.62498H9.33268M6.76602 12.8333H7.23268C9.19287 12.8333 10.173 12.8333 10.9216 12.4518C11.5802 12.1163 12.1156 11.5808 12.4512 10.9223C12.8327 10.1736 12.8327 9.1935 12.8327 7.23331V6.76665C12.8327 4.80646 12.8327 3.82637 12.4512 3.07768C12.1156 2.41911 11.5802 1.88368 10.9216 1.54812C10.173 1.16665 9.19287 1.16665 7.23268 1.16665H6.76602C4.80583 1.16665 3.82574 1.16665 3.07705 1.54812C2.41848 1.88368 1.88305 2.41911 1.54749 3.07768C1.16602 3.82637 1.16602 4.80646 1.16602 6.76665V7.23331C1.16602 9.1935 1.16602 10.1736 1.54749 10.9223C1.88305 11.5808 2.41848 12.1163 3.07705 12.4518C3.82574 12.8333 4.80583 12.8333 6.76602 12.8333Z" stroke="#585858" stroke-width="1.25" stroke-linecap="round" stroke-linejoin="round"/>
</g>
<defs>
<clipPath id="clip0_17523_14312">
<rect width="14" height="14" fill="white"/>
</clipPath>
</defs>
</svg>
