<svg width="18" height="18" viewBox="0 0 18 18" fill="none" xmlns="http://www.w3.org/2000/svg">
<g id="Icon L">
<path id="Vector" d="M0.75 0.750046L1.125 0.75V0.75C2.23484 0.750027 3.21021 1.48576 3.5151 2.5529L3.64286 3.00005M3.64286 3.00005L4.77149 6.95025C5.15296 8.28541 5.3437 8.95298 5.69315 9.47505C6.19428 10.2237 6.93347 10.7813 7.791 11.0575C8.38898 11.25 9.08327 11.25 10.4719 11.25H11.2586C11.9118 11.25 12.2383 11.25 12.5287 11.2072C13.8922 11.006 15.056 10.1171 15.6089 8.85458C15.7266 8.5857 15.8126 8.27063 15.9844 7.64049V7.64049C16.1936 6.87335 16.2983 6.48979 16.3169 6.17979C16.406 4.69458 15.3931 3.36844 13.9368 3.06366C13.6328 3.00005 13.2352 3.00005 12.4401 3.00005H3.64286ZM9 15C9 15.8284 8.32843 16.5 7.5 16.5C6.67157 16.5 6 15.8284 6 15C6 14.1716 6.67157 13.5 7.5 13.5C8.32843 13.5 9 14.1716 9 15ZM15 15C15 15.8284 14.3284 16.5 13.5 16.5C12.6716 16.5 12 15.8284 12 15C12 14.1716 12.6716 13.5 13.5 13.5C14.3284 13.5 15 14.1716 15 15Z" stroke="white" stroke-width="1.5" stroke-linecap="round" stroke-linejoin="round"/>
</g>
</svg>
