<svg width="18" height="18" viewBox="0 0 18 18" fill="none" xmlns="http://www.w3.org/2000/svg">
<g id="comment-text">
<path id="Vector" opacity="0.7" d="M5.25 6H11.25M5.25 9H8.25M14.0374 15.7724V15.7724C14.8231 16.2439 15.216 16.4796 15.5393 16.4575C15.8509 16.4361 16.136 16.2746 16.3147 16.0184C16.5 15.7526 16.5 15.2944 16.5 14.3781V7C16.5 5.07482 16.5 4.11223 16.1253 3.37691C15.7958 2.7301 15.2699 2.20423 14.6231 1.87467C13.8878 1.5 12.9252 1.5 11 1.5H7C5.07482 1.5 4.11223 1.5 3.37691 1.87467C2.7301 2.20423 2.20423 2.7301 1.87467 3.37691C1.5 4.11223 1.5 5.07482 1.5 7V9.5C1.5 11.4252 1.5 12.3878 1.87467 13.1231C2.20423 13.7699 2.7301 14.2958 3.37691 14.6253C4.11223 15 5.07482 15 7 15H11.2487C11.7938 15 12.0663 15 12.3314 15.0417C12.5906 15.0824 12.8443 15.1526 13.0875 15.2511C13.3363 15.3518 13.57 15.492 14.0374 15.7724Z" stroke="#585858" stroke-width="1.3" stroke-linecap="round" stroke-linejoin="round"/>
</g>
</svg>
