<svg width="20" height="20" viewBox="0 0 20 20" fill="none" xmlns="http://www.w3.org/2000/svg">
<g clip-path="url(#clip0_12701_13849)">
<path opacity="0.7" d="M15.8337 15.8332L18.3337 15.8332M15.8337 15.8332C15.8337 17.2139 14.7144 18.3332 13.3337 18.3332C11.9529 18.3332 10.8337 17.2139 10.8337 15.8332C10.8337 14.4524 11.9529 13.3332 13.3337 13.3332C14.7144 13.3332 15.8337 14.4524 15.8337 15.8332ZM1.66699 9.99982L4.16699 9.99982M4.16699 9.99982C4.16699 11.3805 5.28628 12.4998 6.66699 12.4998C8.04771 12.4998 9.16699 11.3805 9.16699 9.99982C9.16699 8.61911 8.0477 7.49982 6.66699 7.49982C5.28628 7.49982 4.16699 8.61911 4.16699 9.99982ZM15.8337 4.16649L18.3337 4.16649M15.8337 4.16649C15.8337 5.5472 14.7144 6.66649 13.3337 6.66649C11.9529 6.66649 10.8337 5.5472 10.8337 4.16649C10.8337 2.78578 11.9529 1.66649 13.3337 1.66649C14.7144 1.66649 15.8337 2.78577 15.8337 4.16649ZM1.66699 15.8332L8.33366 15.8332M11.667 9.99982L18.3337 9.99982M1.66699 4.16649L8.33366 4.16649" stroke="#585858" stroke-width="1.5" stroke-linecap="round"/>
</g>
<defs>
<clipPath id="clip0_12701_13849">
<rect width="20" height="20" fill="white"/>
</clipPath>
</defs>
</svg>
