<svg width="25" height="24" viewBox="0 0 25 24" fill="none" xmlns="http://www.w3.org/2000/svg">
<g id="community">
<path id="Vector" d="M22.4997 22L22.4997 13.9445C22.4997 9.50309 18.9026 5.88901 14.4117 5.86723C13.4524 5.86723 12.5368 6.04141 11.6866 6.34621C10.5529 6.75987 9.55012 7.41302 8.72169 8.24034C7.84966 9.13298 7.17384 10.1998 6.78143 11.3972C6.75962 11.419 6.75962 11.4408 6.75962 11.4408C6.49802 12.2245 6.36721 13.0736 6.36721 13.9445C6.36721 18.3859 9.98614 22 14.4335 22L22.4997 22ZM22.4997 22L22.4997 12.0135C22.4997 6.50741 18.0403 2.02699 12.4728 2C11.2836 2 10.1485 2.21592 9.09448 2.59379C7.6891 3.10661 6.44588 3.91632 5.41887 4.94196C4.33781 6.04857 3.49998 7.37111 3.01351 8.85558C2.98648 8.88257 2.98648 8.90956 2.98648 8.90956C2.66216 9.88122 2.5 10.9339 2.5 12.0135C2.5 17.5195 6.98642 21.9999 12.4998 21.9999L22.4997 22ZM10.2243 14.3118C10.5149 14.3118 10.7504 14.0766 10.7504 13.7864C10.7504 13.4963 10.5149 13.2611 10.2243 13.2611M10.2243 14.3118C9.93378 14.3118 9.69824 14.0766 9.69824 13.7864C9.69824 13.4963 9.93378 13.2611 10.2243 13.2611M10.2243 14.3118L10.2243 13.2611M14.4343 14.3118C14.7248 14.3118 14.9604 14.0766 14.9604 13.7864C14.9604 13.4963 14.7248 13.2611 14.4343 13.2611M14.4343 14.3118C14.1437 14.3118 13.9082 14.0766 13.9082 13.7864C13.9082 13.4963 14.1437 13.2611 14.4343 13.2611M14.4343 14.3118L14.4343 13.2611M18.6423 14.3118C18.9328 14.3118 19.1684 14.0766 19.1684 13.7864C19.1684 13.4963 18.9328 13.2611 18.6423 13.2611M18.6423 14.3118C18.3517 14.3118 18.1162 14.0766 18.1162 13.7864C18.1162 13.4963 18.3517 13.2611 18.6423 13.2611M18.6423 14.3118L18.6423 13.2611" stroke="#585858" stroke-width="1.63636" stroke-linecap="round" stroke-linejoin="round"/>
</g>
</svg>
