<svg width="16" height="16" viewBox="0 0 16 16" fill="none" xmlns="http://www.w3.org/2000/svg">
<g id="comment-text">
<path id="Vector" d="M4.00457 1.28638L4.00457 0.786377L4.00457 1.28638ZM2.44402 14.5471L2.11442 14.1711L2.44402 14.5471ZM4.19932 13.0083L4.52892 13.3843L4.19932 13.0083ZM11.9934 1.2864L11.9934 1.7864L11.9934 1.2864ZM4.83359 4.94558C4.55744 4.94558 4.33359 5.16943 4.33359 5.44558C4.33359 5.72172 4.55744 5.94558 4.83359 5.94558V4.94558ZM11.0725 5.94558C11.3487 5.94558 11.5725 5.72172 11.5725 5.44558C11.5725 5.16943 11.3487 4.94558 11.0725 4.94558V5.94558ZM4.83359 7.61945C4.55744 7.61945 4.33359 7.84331 4.33359 8.11945C4.33359 8.39559 4.55744 8.61945 4.83359 8.61945V7.61945ZM8.39869 8.61945C8.67483 8.61945 8.89869 8.39559 8.89869 8.11945C8.89869 7.84331 8.67483 7.61945 8.39869 7.61945V8.61945ZM14.16 3.95307V10.1763H15.16V3.95307H14.16ZM11.9934 12.343H4.63879V13.343H11.9934V12.343ZM3.86972 12.6324L2.11442 14.1711L2.77362 14.9231L4.52892 13.3843L3.86972 12.6324ZM1.83789 14.0458V3.95305H0.837891V14.0458H1.83789ZM4.00457 1.78638L11.9934 1.7864L11.9934 0.786404L4.00457 0.786377L4.00457 1.78638ZM1.83789 3.95305C1.83789 2.75643 2.80795 1.78637 4.00457 1.78638L4.00457 0.786377C2.25566 0.786371 0.837891 2.20414 0.837891 3.95305H1.83789ZM2.11442 14.1711C2.00669 14.2656 1.83789 14.1891 1.83789 14.0458H0.837891C0.837891 15.0486 2.01951 15.5842 2.77362 14.9231L2.11442 14.1711ZM4.63879 12.343C4.35583 12.343 4.0825 12.4458 3.86972 12.6324L4.52892 13.3843C4.55932 13.3577 4.59836 13.343 4.63879 13.343V12.343ZM14.16 10.1763C14.16 11.3729 13.19 12.343 11.9934 12.343V13.343C13.7423 13.343 15.16 11.9252 15.16 10.1763H14.16ZM15.16 3.95307C15.16 2.20417 13.7423 0.78641 11.9934 0.786404L11.9934 1.7864C13.19 1.78641 14.16 2.75646 14.16 3.95307H15.16ZM4.0434 12.4807L4.03439 12.4898L4.74151 13.1968L4.75052 13.1878L4.0434 12.4807ZM4.83359 5.94558H11.0725V4.94558H4.83359V5.94558ZM4.83359 8.61945H8.39869V7.61945H4.83359V8.61945Z" fill="#585858"/>
</g>
</svg>
