<svg width="18" height="18" viewBox="0 0 18 18" fill="none" xmlns="http://www.w3.org/2000/svg">
<g id="book" opacity="0.7">
<path id="Vector" d="M6 1.5C4.34315 1.5 3 2.84314 3 4.5V12.7515M6 1.5V7.5L8.26193 5.25L10.5071 7.5V1.5M6 1.5H10.5071M12.8571 12.7515H3M12.8571 12.7515C14.0406 12.7515 15 11.7921 15 10.6086V4.5C15 2.84315 13.6568 1.5 12 1.5H10.5071M12.8571 12.7515L14.042 12.75C13.4555 13.6917 13.5261 14.9211 14.283 15.7321L14.8604 16.3507C14.9134 16.4076 14.8731 16.5003 14.7954 16.5003H6C4.34315 16.5003 3 15.1572 3 13.5003L3 12.7515" stroke="#585858" stroke-width="1.3" stroke-miterlimit="10" stroke-linejoin="round"/>
</g>
</svg>
