<svg width="18" height="18" viewBox="0 0 18 18" fill="none" xmlns="http://www.w3.org/2000/svg">
<g id="Icon R">
<path id="Vector" d="M3 3.75L3.44171 11.2591C3.52296 12.6403 3.56358 13.3309 3.77117 13.8907C4.20503 15.0607 5.16006 15.9612 6.35353 16.3256C6.92456 16.5 7.61637 16.5 9 16.5V16.5C10.3836 16.5 11.0754 16.5 11.6465 16.3256C12.8399 15.9612 13.795 15.0607 14.2288 13.8907C14.4364 13.3309 14.477 12.6403 14.5583 11.2591L15 3.75M3 3.75H1.5M3 3.75H15M15 3.75H16.5M12 3.75L11.797 3.14105C11.6003 2.55094 11.502 2.25588 11.3195 2.03774C11.1584 1.8451 10.9516 1.69599 10.7179 1.60408C10.4532 1.5 10.1422 1.5 9.52018 1.5H8.47982C7.85779 1.5 7.54677 1.5 7.28213 1.60408C7.04844 1.69599 6.84156 1.8451 6.68047 2.03774C6.49804 2.25588 6.39969 2.55094 6.20298 3.14105L6 3.75M7.5 7.5V12.75M10.5 7.5V10.5" stroke="#585858" stroke-width="1.25" stroke-linecap="round" stroke-linejoin="round"/>
</g>
</svg>
