<svg width="40" height="40" viewBox="0 0 40 40" fill="none" xmlns="http://www.w3.org/2000/svg">
<rect width="40" height="40" rx="10" fill="#FEF3F2"/>
<path d="M14 14.75L14.4417 22.2591C14.523 23.6403 14.5636 24.3309 14.7712 24.8907C15.205 26.0607 16.1601 26.9612 17.3535 27.3256C17.9246 27.5 18.6164 27.5 20 27.5V27.5C21.3836 27.5 22.0754 27.5 22.6465 27.3256C23.8399 26.9612 24.795 26.0607 25.2288 24.8907C25.4364 24.3309 25.477 23.6403 25.5583 22.2591L26 14.75M14 14.75H12.5M14 14.75H26M26 14.75H27.5M23 14.75L22.797 14.1411C22.6003 13.5509 22.502 13.2559 22.3195 13.0377C22.1584 12.8451 21.9516 12.696 21.7179 12.6041C21.4532 12.5 21.1422 12.5 20.5202 12.5H19.4798C18.8578 12.5 18.5468 12.5 18.2821 12.6041C18.0484 12.696 17.8416 12.8451 17.6805 13.0377C17.498 13.2559 17.3997 13.5509 17.203 14.1411L17 14.75M18.5 18.5V23.75M21.5 18.5V21.5" stroke="#D92D20" stroke-width="1.5" stroke-linecap="round" stroke-linejoin="round"/>
</svg>
