<svg width="18" height="18" viewBox="0 0 18 18" fill="none" xmlns="http://www.w3.org/2000/svg">
<path opacity="0.7" d="M6.73292 14.1511C6.45939 14.1002 6.19917 14.0297 5.94737 13.9397C5.40073 13.7441 5.12739 13.6463 5.02252 13.6217C4.05485 13.3941 3.65341 14.0573 2.8194 14.1963C2.40977 14.2645 2.04528 13.9291 2.07927 13.5153C2.109 13.1534 2.35928 12.8111 2.45915 12.4636C2.66677 11.7411 2.38504 11.1933 2.08739 10.5508C1.71047 9.73712 1.5 8.83061 1.5 7.875C1.5 4.35418 4.35418 1.5 7.875 1.5C10.1564 1.5 12.1579 2.69839 13.2843 4.5M8.25 11.25C8.25 13.7353 10.2647 15.75 12.75 15.75C13.2627 15.75 13.7024 15.677 14.1107 15.5309C14.4965 15.3929 14.6895 15.3239 14.7635 15.3065C15.4466 15.1458 15.7299 15.614 16.3187 15.7121C16.6078 15.7602 16.8651 15.5235 16.8411 15.2314C16.8201 14.9759 16.6435 14.7343 16.573 14.489C16.4264 13.979 16.6253 13.5923 16.8354 13.1388C17.1014 12.5644 17.25 11.9246 17.25 11.25C17.25 8.76472 15.2353 6.75 12.75 6.75C10.2647 6.75 8.25 8.76472 8.25 11.25Z" stroke="#585858" stroke-width="1.3" stroke-linecap="round" stroke-linejoin="round"/>
</svg>
