<svg width="19" height="22" viewBox="0 0 19 22" fill="none" xmlns="http://www.w3.org/2000/svg">
<g id="Group 51">
<g id="Group">
<path id="Vector" d="M4.25293 11.4424H12.4029" stroke="#585858" stroke-width="1.5" stroke-miterlimit="10" stroke-linecap="round"/>
<path id="Vector_2" d="M4.25293 14.1824H9.39293" stroke="#585858" stroke-width="1.5" stroke-miterlimit="10" stroke-linecap="round"/>
</g>
<g id="Group_2">
<path id="Vector_3" d="M14.5029 8.3125C15.0552 8.3125 15.5029 8.76022 15.5029 9.3125V15.3125C15.5029 16.9694 14.1598 18.3125 12.5029 18.3125H4.50293C2.84608 18.3125 1.50293 16.9694 1.50293 15.3125V4.3125C1.50293 2.65565 2.84608 1.3125 4.50293 1.3125H7.50293C8.05521 1.3125 8.50293 1.76022 8.50293 2.3125V4.3125C8.50293 6.52164 10.2938 8.3125 12.5029 8.3125H14.5029Z" stroke="#585858" stroke-width="1.5" stroke-miterlimit="10"/>
<path id="Vector_4" d="M7.11328 1.3125H7.67439C8.2051 1.3125 8.71404 1.52343 9.08916 1.89884L14.918 7.7323C15.2928 8.10733 15.5033 8.6158 15.5033 9.14596V12.3425" stroke="#585858" stroke-width="1.5" stroke-miterlimit="10"/>
</g>
<path id="Vector_5" d="M18.1181 10.6875V15.6875C18.1181 18.4489 15.8795 20.6875 13.1181 20.6875H6.25293" stroke="#585858" stroke-width="1.5" stroke-miterlimit="10" stroke-linecap="round"/>
</g>
</svg>
