<svg width="18" height="18" viewBox="0 0 18 18" fill="none" xmlns="http://www.w3.org/2000/svg">
<g id="Icon R">
<path id="Vector" d="M4.84872 5.78174L7.05991 7.59379M13.1512 5.78174L10.9749 7.56843M13.4625 10.236L10.9749 7.56843M4.5375 10.236L7.05991 7.59379M7.05991 7.59379L8.0521 8.40688C8.60536 8.86028 9.4018 8.85993 9.95466 8.40604L10.9749 7.56843M5.25 2.25H12.75C14.8211 2.25 16.5 3.92893 16.5 6V12C16.5 14.0711 14.8211 15.75 12.75 15.75H5.25C3.17893 15.75 1.5 14.0711 1.5 12V6C1.5 3.92893 3.17893 2.25 5.25 2.25Z" stroke="white" stroke-width="1.25" stroke-miterlimit="10" stroke-linecap="round" stroke-linejoin="round"/>
</g>
</svg>
