<svg width="16" height="16" viewBox="0 0 16 16" fill="none" xmlns="http://www.w3.org/2000/svg">
<path d="M7.33284 1.3335H5.33268C3.85992 1.3335 2.66602 2.5274 2.66602 4.00016V12.0002C2.66602 13.4729 3.85992 14.6668 5.33268 14.6668H10.6663C12.1391 14.6668 13.333 13.4729 13.333 12.0002V6.91244M7.33284 1.3335C7.70103 1.3335 7.9995 1.63197 7.9995 2.00016V3.57911C7.9995 5.05187 9.19341 6.24578 10.6662 6.24578H12.6663C13.0345 6.24578 13.333 6.54425 13.333 6.91244M7.33284 1.3335H7.74399C7.90851 1.3335 8.06723 1.39433 8.1896 1.5043L13.112 5.92782C13.2527 6.05426 13.333 6.23452 13.333 6.42368L13.333 6.91244M5.45073 8.83542H10.1366M5.45073 11.5021H7.84318" stroke="#585858" stroke-width="1.25" stroke-miterlimit="10" stroke-linecap="round"/>
</svg>
