<svg width="23" height="22" viewBox="0 0 23 22" fill="none" xmlns="http://www.w3.org/2000/svg">
<path id="Union" fill-rule="evenodd" clip-rule="evenodd" d="M22.2499 11.0135C22.2499 5.09157 17.4539 0.278983 11.4767 0.250007L11.473 0.249998C10.1922 0.249998 8.97163 0.482685 7.84163 0.887786L7.83764 0.88923C6.32646 1.44065 4.99087 2.31101 3.88914 3.41128L3.88263 3.41786C2.74966 4.5776 1.85979 5.96687 1.3307 7.5329C1.30908 7.57431 1.29196 7.61547 1.27869 7.65524C1.27199 7.6753 1.26633 7.69482 1.26155 7.71363C0.918946 8.75597 0.750246 9.87475 0.750246 11.0135C0.750246 16.9347 5.57339 21.7499 11.5001 21.7499L13.4257 21.75L13.4337 21.75L21.5 21.75C21.9142 21.75 22.25 21.4142 22.25 21L22.25 12.9445L22.2499 12.9344L22.2499 11.0135ZM4.95237 4.46938C5.90352 3.5204 7.05255 2.77279 8.34982 2.29908C9.32679 1.94908 10.3751 1.75022 11.4712 1.75C15.0773 1.76816 18.1772 3.80184 19.7155 6.76365C18.1162 5.14041 15.889 4.12918 13.4155 4.11719L13.4119 4.11719C12.361 4.11719 11.3599 4.30812 10.4337 4.64016L10.4297 4.6416C9.19028 5.09387 8.09509 5.80766 7.19193 6.70961L7.18542 6.71619C6.26006 7.66342 5.53145 8.79897 5.09674 10.0803C5.07809 10.1172 5.06306 10.154 5.05116 10.1897C5.04518 10.2076 5.04004 10.225 5.03563 10.2419C4.75511 11.0972 4.61743 12.0134 4.61743 12.9445C4.61743 15.3969 5.62617 17.618 7.25077 19.2159C4.2826 17.676 2.25025 14.5762 2.25025 11.0135C2.25025 10.0267 2.39581 9.07215 2.68183 8.19642C2.6994 8.16197 2.71434 8.12611 2.72646 8.08914C3.17379 6.72412 3.94623 5.50021 4.95237 4.46938ZM9.22456 11.5112C8.52075 11.5112 7.94849 12.0813 7.94849 12.7866C7.94849 13.4919 8.52075 14.062 9.22456 14.062C9.92838 14.062 10.5006 13.4919 10.5006 12.7866C10.5006 12.0813 9.92838 11.5112 9.22456 11.5112ZM13.4345 11.5112C12.7307 11.5112 12.1584 12.0813 12.1584 12.7866C12.1584 13.4919 12.7307 14.062 13.4345 14.062C14.1383 14.062 14.7106 13.4919 14.7106 12.7866C14.7106 12.0813 14.1383 11.5112 13.4345 11.5112ZM17.6425 11.5112C16.9387 11.5112 16.3665 12.0813 16.3665 12.7866C16.3665 13.4919 16.9387 14.062 17.6425 14.062C18.3463 14.062 18.9186 13.4919 18.9186 12.7866C18.9186 12.0813 18.3463 11.5112 17.6425 11.5112Z" fill="#585858"/>
</svg>
