<svg width="18" height="18" viewBox="0 0 18 18" fill="none" xmlns="http://www.w3.org/2000/svg">
<g id="checkbox-rec">
<path id="Vector" opacity="0.7" d="M12.3333 1.5H8.1C5.78978 1.5 4.63468 1.5 3.75229 1.9496C2.97612 2.34508 2.34508 2.97612 1.9496 3.75229C1.5 4.63468 1.5 5.78978 1.5 8.1V9.9C1.5 12.2102 1.5 13.3653 1.9496 14.2477C2.34508 15.0239 2.97612 15.6549 3.75229 16.0504C4.63468 16.5 5.78978 16.5 8.1 16.5H9.9C12.2102 16.5 13.3653 16.5 14.2477 16.0504C15.0239 15.6549 15.6549 15.0239 16.0504 14.2477C16.5 13.3653 16.5 12.2102 16.5 9.9V8.16667M6.75 8.25L9 10.5L16.5 3" stroke="#585858" stroke-width="1.3" stroke-linecap="round" stroke-linejoin="round"/>
</g>
</svg>
