<svg width="16" height="16" viewBox="0 0 16 16" fill="none" xmlns="http://www.w3.org/2000/svg">
<path d="M1.9987 12.0002L4.21505 9.78381C4.84027 9.15859 5.15289 8.84598 5.51412 8.72683C5.83194 8.62201 6.17462 8.61948 6.49395 8.71959C6.85691 8.83339 7.17411 9.14135 7.8085 9.75727L9.65611 11.5511M14.332 11.7918L13.6839 11.1437C13.0503 10.5101 12.7335 10.1932 12.3681 10.0745C12.0468 9.97014 11.7006 9.97014 11.3793 10.0745C11.014 10.1932 10.697 10.5102 10.063 11.1442C9.8187 11.3885 9.65611 11.5511 9.65611 11.5511M12.332 14.227L9.65611 11.5511M11.9987 5.3335C11.9987 6.06988 11.4017 6.66683 10.6654 6.66683C9.92899 6.66683 9.33203 6.06988 9.33203 5.3335C9.33203 4.59712 9.92899 4.00016 10.6654 4.00016C11.4017 4.00016 11.9987 4.59712 11.9987 5.3335ZM7.9987 14.6668V14.6668C9.73567 14.6668 10.6042 14.6668 11.3088 14.4447C12.8023 13.9737 13.9723 12.8038 14.4432 11.3102C14.6654 10.6056 14.6654 9.73714 14.6654 8.00016V8.00016C14.6654 6.26319 14.6654 5.39471 14.4432 4.69011C13.9723 3.19652 12.8023 2.02658 11.3088 1.55566C10.6042 1.3335 9.73567 1.3335 7.9987 1.3335V1.3335C6.26173 1.3335 5.39324 1.3335 4.68864 1.55566C3.19506 2.02658 2.02512 3.19652 1.55419 4.69011C1.33203 5.39471 1.33203 6.26319 1.33203 8.00016V8.00016C1.33203 9.73714 1.33203 10.6056 1.55419 11.3102C2.02512 12.8038 3.19506 13.9737 4.68864 14.4447C5.39324 14.6668 6.26173 14.6668 7.9987 14.6668Z" stroke="#585858" stroke-width="1.25" stroke-linecap="round" stroke-linejoin="round"/>
</svg>
