<svg width="18" height="18" viewBox="0 0 18 18" fill="none" xmlns="http://www.w3.org/2000/svg">
<g id="book-open" opacity="0.7">
<path id="Vector" d="M9.00389 15.75V4.19624C9.00389 3.8173 8.80358 3.46049 8.47767 3.25029C6.52986 1.99402 3.96426 1.97593 2.01645 3.2322C1.67324 3.45356 1.47738 3.83462 1.50209 4.23297L2.20795 15.6144C2.21144 15.6706 2.27954 15.6991 2.32427 15.663C4.04951 14.2721 6.51491 14.1447 8.3835 15.3499L9.00389 15.75ZM9.00389 15.75V4.32267C9.00389 3.86482 9.24041 3.43727 9.63418 3.1833L9.67215 3.15881C11.5509 1.94706 13.9985 1.94706 15.8773 3.15881C16.2911 3.4257 16.5273 3.88514 16.4975 4.36542L15.7998 15.6145C15.7963 15.6707 15.7282 15.6992 15.6835 15.6631C13.9583 14.2722 11.4929 14.1448 9.62428 15.35L9.00389 15.75ZM3.7238 6.16744C4.67332 5.70813 5.79096 5.70813 6.74048 6.16744M4.47797 9.61745C4.9417 9.34634 5.52258 9.34634 5.98631 9.61745M11.2664 6.16733C12.2159 5.70803 13.3336 5.70803 14.2831 6.16733M12.0206 9.61721C12.4843 9.3461 13.0652 9.3461 13.5289 9.61721" stroke="#585858" stroke-width="1.3" stroke-miterlimit="10" stroke-linecap="round" stroke-linejoin="round"/>
</g>
</svg>
