<svg width="10" height="10" viewBox="0 0 10 10" fill="none" xmlns="http://www.w3.org/2000/svg">
<g id="Icon R">
<path id="Vector" d="M2.91667 3.33331V2.91665C2.91667 2.3565 2.91667 2.07642 2.99144 1.85008C3.13859 1.40465 3.48801 1.05524 3.93343 0.908086C4.15978 0.833313 4.43985 0.833313 5 0.833313V0.833313C5.56015 0.833313 5.84022 0.833313 6.06656 0.908086C6.51199 1.05524 6.86141 1.40465 7.00856 1.85008C7.08333 2.07642 7.08333 2.3565 7.08333 2.91665V3.33331M5 5.83331V6.66665M4.16667 9.16665H5.83333C6.71027 9.16665 7.14874 9.16665 7.49689 9.02989C8.008 8.82912 8.41247 8.42465 8.61324 7.91354C8.75 7.56538 8.75 7.12692 8.75 6.24998V6.24998C8.75 5.37304 8.75 4.93457 8.61324 4.58642C8.41247 4.07531 8.008 3.67084 7.49689 3.47007C7.14874 3.33331 6.71027 3.33331 5.83333 3.33331H4.16667C3.28973 3.33331 2.85126 3.33331 2.50311 3.47007C1.992 3.67084 1.58753 4.07531 1.38676 4.58642C1.25 4.93457 1.25 5.37304 1.25 6.24998V6.24998C1.25 7.12692 1.25 7.56538 1.38676 7.91354C1.58753 8.42465 1.992 8.82912 2.50311 9.02989C2.85126 9.16665 3.28973 9.16665 4.16667 9.16665Z" stroke="#585858" stroke-width="0.740741" stroke-linecap="round"/>
</g>
</svg>
