<svg width="16" height="14" viewBox="0 0 16 14" fill="none" xmlns="http://www.w3.org/2000/svg">
<g id="trophy" opacity="0.7">
<path id="Vector" d="M3.91732 2.91667H2.75065C2.47941 2.91667 2.34379 2.91667 2.23252 2.94649C1.93056 3.0274 1.69471 3.26325 1.6138 3.56521C1.58398 3.67648 1.58398 3.8121 1.58398 4.08334V4.08334C1.58398 4.62582 1.58398 4.89706 1.64361 5.11961C1.80543 5.72352 2.27714 6.19522 2.88105 6.35704C3.10359 6.41667 3.37483 6.41667 3.91732 6.41667V6.41667M12.084 2.91667H13.2507C13.5219 2.91667 13.6575 2.91667 13.7688 2.94649C14.0707 3.0274 14.3066 3.26325 14.3875 3.56521C14.4173 3.67648 14.4173 3.8121 14.4173 4.08334V4.08334C14.4173 4.62582 14.4173 4.89706 14.3577 5.11961C14.1959 5.72352 13.7242 6.19522 13.1203 6.35704C12.8977 6.41667 12.6265 6.41667 12.084 6.41667V6.41667M8.00065 8.16667V10.5M6.30368 12.8333H9.69762C10.0491 12.8333 10.334 12.5484 10.334 12.197V12.197C10.334 11.2598 9.57423 10.5 8.63702 10.5H7.36429C6.42708 10.5 5.66732 11.2598 5.66732 12.197V12.197C5.66732 12.5484 5.95223 12.8333 6.30368 12.8333ZM8.00065 8.16667V8.16667C9.0864 8.16667 9.62927 8.16667 10.0686 8.02392C10.9566 7.73541 11.6527 7.03925 11.9412 6.15131C12.084 5.71196 12.084 5.16909 12.084 4.08334V3.79167C12.084 2.97627 12.084 2.56858 11.9508 2.24698C11.7732 1.81818 11.4325 1.4775 11.0037 1.29988C10.6821 1.16667 10.2744 1.16667 9.45899 1.16667H6.54232C5.72692 1.16667 5.31922 1.16667 4.99762 1.29988C4.56882 1.4775 4.22814 1.81818 4.05053 2.24698C3.91732 2.56858 3.91732 2.97627 3.91732 3.79167V4.08334C3.91732 5.16909 3.91732 5.71196 4.06007 6.15131C4.34858 7.03925 5.04474 7.73541 5.93268 8.02392C6.37203 8.16667 6.9149 8.16667 8.00065 8.16667Z" stroke="#585858" stroke-width="1.25" stroke-linecap="round" stroke-linejoin="round"/>
</g>
</svg>
