<svg width="14" height="14" viewBox="0 0 14 14" fill="none" xmlns="http://www.w3.org/2000/svg">
<g id="Icon R" opacity="0.7" clip-path="url(#clip0_17552_21478)">
<path id="Vector" d="M4.95964 7.29175L6.41797 8.75008L9.91797 5.25008M5.96797 12.8334H8.03464C9.71479 12.8334 10.5549 12.8334 11.1966 12.5064C11.7611 12.2188 12.22 11.7599 12.5077 11.1954C12.8346 10.5537 12.8346 9.71357 12.8346 8.03341V5.96675C12.8346 4.28659 12.8346 3.44651 12.5077 2.80478C12.22 2.24029 11.7611 1.78135 11.1966 1.49373C10.5549 1.16675 9.71479 1.16675 8.03463 1.16675H5.96797C4.28781 1.16675 3.44773 1.16675 2.806 1.49373C2.24151 1.78135 1.78257 2.24029 1.49495 2.80478C1.16797 3.44651 1.16797 4.28659 1.16797 5.96675V8.03342C1.16797 9.71357 1.16797 10.5537 1.49495 11.1954C1.78257 11.7599 2.24151 12.2188 2.806 12.5064C3.44773 12.8334 4.28781 12.8334 5.96797 12.8334Z" stroke="#585858" stroke-width="1.25" stroke-linecap="round" stroke-linejoin="round"/>
</g>
<defs>
<clipPath id="clip0_17552_21478">
<rect width="14" height="14" fill="white"/>
</clipPath>
</defs>
</svg>
