<svg width="18" height="18" viewBox="0 0 18 18" fill="none" xmlns="http://www.w3.org/2000/svg">
<g id="Pause">
<g id="Vector">
<path d="M2.56738 3.51562C2.56738 2.81664 3.09355 2.25 3.74261 2.25H6.09305C6.74211 2.25 7.26828 2.81664 7.26828 3.51562V14.4844C7.26828 15.1834 6.74211 15.75 6.09305 15.75H3.74261C3.09355 15.75 2.56738 15.1834 2.56738 14.4844V3.51562Z" fill="#585858"/>
<path d="M10.4022 3.51562C10.4022 2.81664 10.9284 2.25 11.5774 2.25H13.9279C14.5769 2.25 15.1031 2.81664 15.1031 3.51562V14.4844C15.1031 15.1834 14.5769 15.75 13.9279 15.75H11.5774C10.9284 15.75 10.4022 15.1834 10.4022 14.4844V3.51562Z" fill="#585858"/>
</g>
</g>
</svg>
