<svg width="14" height="14" viewBox="0 0 14 14" fill="none" xmlns="http://www.w3.org/2000/svg">
<g id="play">
<path id="Vector (Stroke)" fill-rule="evenodd" clip-rule="evenodd" d="M5.90101 2.30372L10.0837 4.88286C10.5401 5.16427 10.9083 5.3913 11.1806 5.5955C11.4561 5.802 11.6886 6.02399 11.8154 6.31589C12.0051 6.7527 12.0051 7.24753 11.8154 7.68434C11.6886 7.97624 11.4561 8.19823 11.1806 8.40473C10.9083 8.60893 10.5401 8.83597 10.0837 9.11738L5.90104 11.6965C5.39311 12.0097 4.98605 12.2607 4.65199 12.4269C4.31658 12.5938 3.98889 12.7106 3.65088 12.6838C3.15016 12.6441 2.68937 12.393 2.38773 11.9923C2.18332 11.7207 2.10962 11.3814 2.07524 11.0115C2.04101 10.6433 2.04101 10.1692 2.04102 9.57883V4.42141C2.04101 3.83101 2.04101 3.35692 2.07524 2.98872C2.10962 2.61886 2.18332 2.2795 2.38773 2.00796C2.68937 1.60727 3.15016 1.35617 3.65088 1.31646C3.98889 1.28965 4.31658 1.40639 4.65199 1.57329C4.98604 1.73951 5.39309 1.99052 5.90101 2.30372Z" fill="black"/>
</g>
</svg>
