<svg width="14" height="14" viewBox="0 0 14 14" fill="none" xmlns="http://www.w3.org/2000/svg">
<g id="play" opacity="0.7">
<path id="Vector" d="M2.47949 9.55592V4.44433C2.47949 3.22465 2.47949 2.61481 2.73824 2.2711C2.96378 1.97149 3.3094 1.7825 3.68645 1.7526C4.11901 1.71829 4.64318 2.0415 5.69151 2.68793L9.83632 5.24372C10.7809 5.82615 11.2531 6.11736 11.4151 6.4902C11.5565 6.81583 11.5565 7.18442 11.4151 7.51004C11.2531 7.88289 10.7809 8.1741 9.83632 8.75652L5.69151 11.3123C4.64318 11.9587 4.11901 12.282 3.68645 12.2477C3.3094 12.2177 2.96378 12.0288 2.73824 11.7291C2.47949 11.3854 2.47949 10.7756 2.47949 9.55592Z" stroke="#585858" stroke-width="1.3" stroke-linecap="round" stroke-linejoin="round"/>
</g>
</svg>
