<svg width="24" height="24" viewBox="0 0 24 24" fill="none" xmlns="http://www.w3.org/2000/svg">
<g id="Property 1=filled">
<path id="Vector (Stroke)" fill-rule="evenodd" clip-rule="evenodd" d="M13.8829 3.94924L6.71257 8.37062C5.9302 8.85304 5.29902 9.24223 4.8321 9.59229C4.35993 9.94628 3.96131 10.3268 3.74395 10.8272C3.41868 11.5761 3.41868 12.4243 3.74395 13.1732C3.96131 13.6736 4.35993 14.0541 4.8321 14.4081C5.29902 14.7582 5.93022 15.1474 6.71261 15.6298L13.8828 20.0511C14.7536 20.5881 15.4514 21.0184 16.024 21.3033C16.599 21.5894 17.1608 21.7896 17.7402 21.7436C18.5986 21.6755 19.3885 21.2451 19.9056 20.5582C20.2561 20.0927 20.3824 19.5109 20.4413 18.8769C20.5 18.2457 20.5 17.433 20.5 16.4208V7.57956C20.5 6.56745 20.5 5.75473 20.4413 5.12352C20.3824 4.48949 20.2561 3.90773 19.9056 3.44223C19.3885 2.75532 18.5986 2.32487 17.7402 2.25679C17.1608 2.21083 16.599 2.41095 16.024 2.69708C15.4514 2.98203 14.7536 3.41232 13.8829 3.94924Z" fill="white"/>
</g>
</svg>
