<svg width="18" height="18" viewBox="0 0 18 18" fill="none" xmlns="http://www.w3.org/2000/svg">
<g id="play">
<path id="Vector" opacity="0.7" fill-rule="evenodd" clip-rule="evenodd" d="M4.94273 2.1061C3.72698 1.36313 3.1191 0.991652 2.61827 1.03546C2.18164 1.07366 1.78244 1.29754 1.52217 1.6502C1.22363 2.05469 1.22363 2.76709 1.22363 4.1919V14.3234C1.22363 15.7482 1.22363 16.4606 1.52217 16.8651C1.78244 17.2177 2.18164 17.4416 2.61827 17.4798C3.1191 17.5236 3.72697 17.1521 4.94273 16.4092L13.2321 11.3434C14.3606 10.6538 14.9249 10.309 15.1172 9.86508C15.2851 9.47753 15.2851 9.03774 15.1172 8.65019C14.9249 8.20628 14.3606 7.86147 13.2321 7.17183L4.94273 2.1061Z" fill="#585858"/>
</g>
</svg>
