<svg width="24" height="24" viewBox="0 0 24 24" fill="none" xmlns="http://www.w3.org/2000/svg">
<g id="Property 1=line">
<path id="Vector" d="M19.75 16.3816V7.61884C19.75 5.52796 19.75 4.48252 19.3064 3.8933C18.9198 3.37969 18.3273 3.0557 17.6809 3.00444C16.9394 2.94562 16.0408 3.49971 14.2437 4.60787L7.1383 8.98923C5.51909 9.98767 4.70949 10.4869 4.43186 11.126C4.18938 11.6843 4.18938 12.3161 4.43186 12.8743C4.70949 13.5135 5.51909 14.0127 7.1383 15.0112L14.2437 19.3925C16.0408 20.5007 16.9394 21.0548 17.6809 20.996C18.3273 20.9447 18.9198 20.6207 19.3064 20.1071C19.75 19.5179 19.75 18.4724 19.75 16.3816Z" stroke="white" stroke-width="1.5" stroke-linecap="round" stroke-linejoin="round"/>
</g>
</svg>
