<svg width="18" height="18" viewBox="0 0 18 18" fill="none" xmlns="http://www.w3.org/2000/svg">
<path d="M5.03025 8.97393H9.8542M5.03025 11.7455H8.0726M7.7861 1.5H4.8369C3.6153 1.5 2.625 2.49099 2.625 3.71343V11.8293C2.625 13.0518 3.6153 14.0428 4.8369 14.0428H10.7353C11.9569 14.0428 12.9472 13.0518 12.9472 11.8293V6.66467M7.7861 1.5C8.19329 1.5 8.52339 1.83033 8.52339 2.23781V4.45124C8.52339 5.2662 9.1836 5.92686 9.99799 5.92686H12.2099C12.6171 5.92686 12.9472 6.25719 12.9472 6.66467M7.7861 1.5H7.91219C8.30351 1.5 8.67879 1.65565 8.95537 1.93268L12.5158 5.49879C12.792 5.77549 12.9472 6.15061 12.9472 6.54174L12.9472 6.66467M15.375 10.6304L15.375 12.811C15.375 14.8484 13.7245 16.5 11.6885 16.5L8.33906 16.5" stroke="#F04438" stroke-width="1.125" stroke-miterlimit="10" stroke-linecap="round"/>
</svg>
