<svg width="14" height="14" viewBox="0 0 14 14" fill="none" xmlns="http://www.w3.org/2000/svg">
<g opacity="0.7">
<path d="M7.29102 9.33333C7.29102 9.49441 7.16043 9.625 6.99935 9.625C6.83827 9.625 6.70768 9.49441 6.70768 9.33333M7.29102 9.33333C7.29102 9.17225 7.16043 9.04166 6.99935 9.04166C6.83827 9.04166 6.70768 9.17225 6.70768 9.33333M7.29102 9.33333H6.70768M5.83268 6.125V5.83333C5.83268 5.189 6.35502 4.66666 6.99935 4.66666C7.64368 4.66666 8.16602 5.189 8.16602 5.83333V5.9041C8.16602 6.23229 8.03564 6.54704 7.80358 6.7791L6.99935 7.58333M12.8327 7C12.8327 10.2217 10.221 12.8333 6.99935 12.8333C6.33472 12.8333 5.76475 12.7387 5.23551 12.5494C4.73531 12.3704 4.4852 12.281 4.38923 12.2584C3.50378 12.0502 3.13646 12.657 2.37331 12.7842C1.99848 12.8466 1.66496 12.5397 1.69607 12.161C1.72327 11.8299 1.95228 11.5167 2.04367 11.1987C2.23365 10.5376 1.97585 10.0363 1.7035 9.44842C1.3586 8.7039 1.16602 7.87442 1.16602 7C1.16602 3.77834 3.77769 1.16666 6.99935 1.16666C10.221 1.16666 12.8327 3.77834 12.8327 7Z" stroke="#585858" stroke-width="1.3" stroke-linecap="round" stroke-linejoin="round"/>
</g>
</svg>
