<svg width="18" height="18" viewBox="0 0 18 18" fill="none" xmlns="http://www.w3.org/2000/svg">
<g id="video-camera">
<path id="Vector" d="M6.83484 5.65078L9.92859 5.65078M3.75004 2.27173L10.125 2.27173C11.7819 2.27173 13.1251 3.61488 13.125 5.27174L13.125 12.7283C13.125 14.3852 11.7819 15.7283 10.125 15.7283L3.75 15.7283C2.09314 15.7283 0.749993 14.3852 0.750002 12.7283L0.750042 5.27171C0.750051 3.61486 2.09319 2.27173 3.75004 2.27173ZM14.7127 5.24209L13.3564 6.54076C13.2086 6.68223 13.1251 6.87792 13.1251 7.08248L13.1251 10.9176C13.1251 11.1222 13.2086 11.3179 13.3564 11.4593L14.7127 12.758C15.6666 13.6714 17.2501 12.9953 17.2501 11.6746L17.2501 6.32553C17.2501 5.00481 15.6666 4.3287 14.7127 5.24209Z" stroke="#008000" stroke-width="1.03125" stroke-linecap="round"/>
</g>
</svg>
