<svg width="18" height="18" viewBox="0 0 18 18" fill="none" xmlns="http://www.w3.org/2000/svg">
<g id="image-upload">
<path id="Vector" d="M2.11133 6.87275C2.11133 6.58797 1.88047 6.35712 1.5957 6.35712C1.31093 6.35712 1.08008 6.58797 1.08008 6.87275H2.11133ZM16.9193 8.11209C16.9193 7.82732 16.6885 7.59646 16.4037 7.59646C16.1189 7.59646 15.8881 7.82732 15.8881 8.11209H16.9193ZM16.0478 12.8208C16.2545 13.0167 16.5808 13.008 16.7768 12.8013C16.9727 12.5946 16.964 12.2683 16.7573 12.0724L16.0478 12.8208ZM12.9873 9.20888L12.6325 9.58308L12.9873 9.20888ZM10.0263 9.09079L10.3501 9.49205L10.0263 9.09079ZM7.04889 11.4935L6.72508 11.0923L7.04889 11.4935ZM4.40548 11.6263L4.12352 12.058L4.40548 11.6263ZM2.27557 10.2352L2.55754 9.80347H2.55754L2.27557 10.2352ZM1.59584 8.97925L2.11146 8.97927L1.59584 8.97925ZM1.59603 4.47692L1.08041 4.47689L1.59603 4.47692ZM10.1215 1.99268C10.4063 1.99268 10.6371 1.76182 10.6371 1.47705C10.6371 1.19228 10.4063 0.961426 10.1215 0.961426V1.99268ZM16.0415 3.77112C16.2441 3.97119 16.5706 3.9691 16.7707 3.76644C16.9707 3.56379 16.9686 3.23732 16.766 3.03726L16.0415 3.77112ZM14.4517 1.47705L14.8139 1.11012C14.6147 0.913439 14.295 0.91165 14.0936 1.10609L14.4517 1.47705ZM12.0973 3.03322C11.8925 3.23101 11.8867 3.55744 12.0845 3.76232C12.2823 3.96719 12.6087 3.97294 12.8136 3.77515L12.0973 3.03322ZM13.9365 5.9837C13.9366 6.26847 14.1674 6.4993 14.4522 6.49927C14.737 6.49924 14.9678 6.26836 14.9678 5.98359L13.9365 5.9837ZM13.4037 16.0069H4.5957V17.0382H13.4037V16.0069ZM2.11133 13.5226V6.87275H1.08008V13.5226H2.11133ZM15.8881 8.11209V13.5226H16.9193V8.11209H15.8881ZM4.5957 16.0069C3.22362 16.0069 2.11133 14.8946 2.11133 13.5226H1.08008C1.08008 15.4642 2.65408 17.0382 4.5957 17.0382V16.0069ZM13.4037 17.0382C15.3453 17.0382 16.9193 15.4642 16.9193 13.5226H15.8881C15.8881 14.8946 14.7758 16.0069 13.4037 16.0069V17.0382ZM16.7573 12.0724L13.342 8.83468L12.6325 9.58308L16.0478 12.8208L16.7573 12.0724ZM9.70249 8.68952L6.72508 11.0923L7.37271 11.8948L10.3501 9.49205L9.70249 8.68952ZM4.68745 11.1946L2.55754 9.80347L1.99361 10.6669L4.12352 12.058L4.68745 11.1946ZM2.11146 8.97927L2.11166 4.47694L1.08041 4.47689L1.08021 8.97923L2.11146 8.97927ZM4.59603 1.99268H10.1215V0.961426H4.59603V1.99268ZM2.11166 4.47694C2.11172 3.1049 3.22399 1.99268 4.59603 1.99268V0.961426C2.65447 0.961426 1.08049 2.53533 1.08041 4.47689L2.11166 4.47694ZM2.55754 9.80347C2.27922 9.62168 2.11145 9.3117 2.11146 8.97927L1.08021 8.97923C1.08018 9.65992 1.42371 10.2946 1.99361 10.6669L2.55754 9.80347ZM6.72508 11.0923C6.13988 11.5645 5.31703 11.6058 4.68745 11.1946L4.12352 12.058C5.12744 12.7137 6.43956 12.6478 7.37271 11.8948L6.72508 11.0923ZM13.342 8.83468C12.3365 7.88143 10.7807 7.81938 9.70249 8.68952L10.3501 9.49205C11.0263 8.94637 12.002 8.98528 12.6325 9.58308L13.342 8.83468ZM6.22957 6.59052C6.22957 7.0856 5.82822 7.48695 5.33314 7.48695V8.5182C6.39777 8.5182 7.26082 7.65515 7.26082 6.59052H6.22957ZM5.33314 7.48695C4.83806 7.48695 4.43671 7.0856 4.43671 6.59052H3.40546C3.40546 7.65515 4.26851 8.5182 5.33314 8.5182V7.48695ZM4.43671 6.59052C4.43671 6.09543 4.83806 5.69409 5.33314 5.69409V4.66284C4.26851 4.66284 3.40546 5.52589 3.40546 6.59052H4.43671ZM5.33314 5.69409C5.82822 5.69409 6.22957 6.09544 6.22957 6.59052H7.26082C7.26082 5.52589 6.39777 4.66284 5.33314 4.66284V5.69409ZM16.766 3.03726L14.8139 1.11012L14.0894 1.84398L16.0415 3.77112L16.766 3.03726ZM14.0936 1.10609L12.0973 3.03322L12.8136 3.77515L14.8098 1.84802L14.0936 1.10609ZM13.9361 1.47711L13.9365 5.9837L14.9678 5.98359L14.9673 1.477L13.9361 1.47711Z" fill="#008000"/>
</g>
</svg>
