<svg width="18" height="18" viewBox="0 0 18 18" fill="none" xmlns="http://www.w3.org/2000/svg">
<g id="file-text">
<path id="Vector" d="M8.25017 1.5H6C4.34315 1.5 3 2.84315 3 4.5V13.5C3 15.1569 4.34315 16.5 6 16.5H12.0003C13.6572 16.5 15.0003 15.1569 15.0003 13.5V7.77632M8.25017 1.5C8.66439 1.5 9.00017 1.83579 9.00017 2.25V4.02632C9.00017 5.68317 10.3433 7.02632 12.0002 7.02632H14.2503C14.6646 7.02632 15.0003 7.3621 15.0003 7.77632M8.25017 1.5H8.71272C8.89781 1.5 9.07636 1.56844 9.21403 1.69216L14.7517 6.66862C14.91 6.81086 15.0004 7.01365 15.0004 7.22646L15.0003 7.77632M6.13281 9.93966H11.4044M6.13281 12.9397H8.82431" stroke="#008000" stroke-width="1.03125" stroke-miterlimit="10" stroke-linecap="round"/>
</g>
</svg>
